<svg version="1.1" id="Layer_1" xmlns="http://www.w3.org/2000/svg" xmlns:xlink="http://www.w3.org/1999/xlink" x="0px" y="0px"
	 width="100%" viewBox="0 0 704 704" enable-background="new 0 0 704 704" xml:space="preserve">
<path fill="#000000" opacity="1.000000" stroke="none" 
	d="
M655.945679,679.382080 
	C635.455994,679.379150 615.456787,679.301941 595.458923,679.428162 
	C590.914673,679.456787 587.017517,678.350647 583.376343,675.626770 
	C561.882202,659.548279 541.494568,642.109863 520.920471,624.903259 
	C505.584778,612.077698 490.347748,599.133057 475.164917,586.126953 
	C472.526367,583.866699 469.855408,582.939514 466.482758,583.624390 
	C431.882538,590.650513 397.428345,589.349365 363.096619,581.725098 
	C357.424011,580.465271 351.754242,579.182983 346.119904,577.764954 
	C343.694305,577.154541 341.931610,577.388611 340.827728,579.927673 
	C332.994019,597.946289 325.114105,615.944824 317.277893,633.962341 
	C316.965881,634.679688 316.945679,635.523865 316.813751,636.187256 
	C318.571106,638.147522 320.695404,637.599548 322.620453,637.612793 
	C331.286133,637.672363 339.952606,637.607300 348.618469,637.651428 
	C359.058044,637.704651 366.864868,644.706665 368.241791,655.171814 
	C369.684143,666.134460 363.789825,675.486084 353.625824,678.288635 
	C351.052155,678.998230 348.429382,679.319946 345.731964,679.319153 
	C303.568024,679.306091 261.404083,679.349487 219.240143,679.351074 
	C206.119812,679.351562 197.738281,671.664978 197.657990,659.666260 
	C197.573074,646.975342 206.860199,637.704041 219.768677,637.667786 
	C234.100998,637.627502 248.435287,637.518066 262.764709,637.721313 
	C266.663116,637.776611 268.733002,636.604126 270.270752,632.892090 
	C279.446747,610.742188 288.783569,588.657227 298.303558,566.653076 
	C299.891815,562.981934 299.206268,561.590210 295.654297,560.003540 
	C252.505844,540.728821 214.602371,514.058655 182.903320,478.896332 
	C147.627213,439.765991 125.204994,394.115845 114.681450,342.566589 
	C111.010910,324.586578 110.033859,306.378815 109.488876,288.056580 
	C108.927887,269.196289 109.476974,250.498077 112.588951,231.890228 
	C113.027771,229.266266 111.729698,227.497284 110.000397,225.762756 
	C100.026619,215.758759 87.920135,209.246414 74.879562,204.299377 
	C62.267586,199.514923 49.304680,195.842056 36.254433,192.475479 
	C34.820133,192.105484 33.235355,192.174698 31.995081,190.243546 
	C37.233452,186.585953 42.503929,182.925140 47.754845,179.236481 
	C80.631790,156.141174 112.738777,132.035278 142.444962,104.931854 
	C153.755096,94.612686 164.170349,83.315971 175.059372,72.531326 
	C200.975815,46.863323 231.953079,30.729231 268.073181,25.978464 
	C329.461090,17.904301 381.678589,36.423103 423.776489,82.300133 
	C445.621704,106.106331 460.752014,133.538528 467.691895,165.172043 
	C476.303528,204.425995 470.196716,241.516373 449.948273,276.178467 
	C447.985657,279.538086 448.374817,281.085022 450.946136,283.599609 
	C499.316193,330.902222 547.578430,378.315063 595.908325,425.658813 
	C603.469543,433.065765 607.508362,441.546021 604.317688,452.175690 
	C599.177979,469.298737 580.005066,474.963165 566.400208,463.340393 
	C561.981873,459.565765 558.121399,455.139679 553.989990,451.027374 
	C510.406769,407.645721 466.040924,365.067444 421.928070,322.229004 
	C418.889038,319.277771 417.009125,319.678741 414.107483,322.138794 
	C399.687531,334.364319 383.622437,344.192871 367.285645,353.572052 
	C356.518524,359.753540 345.480774,360.209869 334.512146,354.007050 
	C326.106873,349.253876 322.661621,340.760132 325.022797,331.421783 
	C326.497192,325.590576 330.727142,322.678131 335.967224,320.769409 
	C350.474152,315.485077 364.021271,308.333008 376.214355,298.897614 
	C404.772522,276.798431 424.313019,248.801849 430.376648,212.641907 
	C434.372406,188.813507 428.863647,166.395050 418.469360,144.966232 
	C400.527863,107.978149 372.254791,81.603371 333.040955,70.073891 
	C281.881958,55.032356 236.145370,66.862862 198.875183,105.947723 
	C175.847366,130.096756 162.640854,159.484680 156.317230,192.076797 
	C151.491058,216.950958 149.564514,242.075195 148.955627,267.397583 
	C148.206985,298.531158 151.195557,329.093842 160.106247,358.992523 
	C170.922714,395.285675 189.816315,426.916321 215.793732,454.301422 
	C256.326477,497.030457 305.671082,524.728821 362.615082,538.981873 
	C382.514862,543.962769 402.843964,546.174500 423.410614,545.646545 
	C425.318420,545.597534 425.318390,545.595886 429.063904,543.587463 
	C391.208527,512.274048 361.808685,474.533234 338.227325,432.116241 
	C339.502106,431.323425 340.246674,432.182526 341.023926,432.732086 
	C388.904327,466.587250 437.799347,498.953888 486.450928,531.673645 
	C534.963989,564.300293 583.708862,596.582458 632.385437,628.965576 
	C642.924255,635.976685 653.629456,642.737305 664.211182,649.684631 
	C670.400269,653.748047 674.522583,659.168823 674.290283,666.951782 
	C674.071167,674.291870 669.214111,679.056335 661.938477,679.339050 
	C660.106812,679.410217 658.270691,679.370361 655.945679,679.382080 
z"/>
<path fill="#000000" opacity="1.000000" stroke="none" 
	d="
M254.571518,211.150391 
	C244.486359,167.354218 270.929382,126.999565 312.248566,120.010681 
	C353.455963,113.040703 390.283295,141.110443 395.416199,180.959793 
	C399.411804,211.980103 389.491425,237.566055 363.421753,255.464081 
	C329.810425,278.539734 282.189972,266.661560 262.349609,230.959686 
	C258.933838,224.813171 256.168304,218.443344 254.571518,211.150391 
M304.742645,225.763901 
	C313.023438,231.424515 322.166626,233.303970 331.832916,230.914276 
	C353.927948,225.451904 366.915283,201.085678 359.448486,179.612213 
	C353.067322,161.260849 333.750641,150.176651 316.365143,155.096863 
	C299.925232,159.749512 290.353455,171.067841 287.766113,187.561539 
	C285.311707,203.207886 291.501678,215.866028 304.742645,225.763901 
z"/>
</svg>